<?xml version="1.0" encoding="UTF-8"?>
<svg width="387px" height="34px" viewBox="0 0 387 34" version="1.1" xmlns="http://www.w3.org/2000/svg" xmlns:xlink="http://www.w3.org/1999/xlink">
    <title>Group</title>
    <g id="Page-1" stroke="none" stroke-width="1" fill="none" fill-rule="evenodd">
        <g id="Group" transform="translate(0.485000, 0.105000)" fill="#000000" fill-rule="nonzero">
            <path d="M13.41,33.66 C15,33.66 16.56,33.4725 18.09,33.0975 C19.62,32.7225 20.985,32.13 22.185,31.32 C23.385,30.51 24.3525,29.4675 25.0875,28.1925 C25.8225,26.9175 26.19,25.38 26.19,23.58 C26.19,22.74 26.0625,21.9 25.8075,21.06 C25.5525,20.22 25.1625,19.4325 24.6375,18.6975 C24.1125,17.9625 23.46,17.31 22.68,16.74 C21.9,16.17 20.985,15.72 19.935,15.39 C19.515,15.27 18.8175,15.0825 17.8425,14.8275 C16.8675,14.5725 15.87,14.31 14.85,14.04 C13.83,13.77 12.9075,13.5225 12.0825,13.2975 C11.2575,13.0725 10.785,12.945 10.665,12.915 C9.525,12.585 8.6025,12.0975 7.8975,11.4525 C7.1925,10.8075 6.84,9.915 6.84,8.775 C6.84,7.965 7.0275,7.29 7.4025,6.75 C7.7775,6.21 8.25,5.7825 8.82,5.4675 C9.39,5.1525 10.02,4.9275 10.71,4.7925 C11.4,4.6575 12.075,4.59 12.735,4.59 C14.685,4.59 16.29,5.0175 17.55,5.8725 C18.81,6.7275 19.515,8.19 19.665,10.26 L19.665,10.26 L25.29,10.26 C25.29,8.58 24.96,7.1025 24.3,5.8275 C23.64,4.5525 22.7475,3.48 21.6225,2.61 C20.4975,1.74 19.1925,1.0875 17.7075,0.6525 C16.2225,0.2175 14.64,0 12.96,0 C11.52,0 10.095,0.1875 8.685,0.5625 C7.275,0.9375 6.015,1.515 4.905,2.295 C3.795,3.075 2.9025,4.0575 2.2275,5.2425 C1.5525,6.4275 1.215,7.83 1.215,9.45 C1.215,10.29 1.3275,11.115 1.5525,11.925 C1.7775,12.735 2.16,13.5 2.7,14.22 C3.24,14.94 3.9675,15.5925 4.8825,16.1775 C5.7975,16.7625 6.945,17.235 8.325,17.595 C10.545,18.195 12.4125,18.6825 13.9275,19.0575 C15.4425,19.4325 16.77,19.83 17.91,20.25 C18.57,20.49 19.1775,20.9025 19.7325,21.4875 C20.2875,22.0725 20.565,22.98 20.565,24.21 C20.565,24.81 20.445,25.4025 20.205,25.9875 C19.965,26.5725 19.575,27.09 19.035,27.54 C18.495,27.99 17.79,28.3575 16.92,28.6425 C16.05,28.9275 15,29.07 13.77,29.07 C12.63,29.07 11.5725,28.9425 10.5975,28.6875 C9.6225,28.4325 8.76,28.0275 8.01,27.4725 C7.26,26.9175 6.675,26.205 6.255,25.335 C5.835,24.465 5.625,23.415 5.625,22.185 L5.625,22.185 L0,22.185 C0.03,24.165 0.405,25.8825 1.125,27.3375 C1.845,28.7925 2.805,29.985 4.005,30.915 C5.205,31.845 6.615,32.535 8.235,32.985 C9.855,33.435 11.58,33.66 13.41,33.66 Z M56.54,32.895 L56.54,28.035 L38.72,28.035 L38.72,18.63 L54.92,18.63 L54.92,14.04 L38.72,14.04 L38.72,5.625 L56.225,5.625 L56.225,0.765 L33.095,0.765 L33.095,32.895 L56.54,32.895 Z M86.89,32.895 L86.89,28.035 L69.07,28.035 L69.07,18.63 L85.27,18.63 L85.27,14.04 L69.07,14.04 L69.07,5.625 L86.575,5.625 L86.575,0.765 L63.445,0.765 L63.445,32.895 L86.89,32.895 Z M106.53,32.895 L106.53,5.625 L116.745,5.625 L116.745,0.765 L90.735,0.765 L90.735,5.625 L100.905,5.625 L100.905,32.895 L106.53,32.895 Z M120.41,32.895 L123.425,24.39 L136.25,24.39 L139.265,32.895 L145.295,32.895 L132.92,0.765 L126.935,0.765 L114.605,32.895 L120.41,32.895 Z M134.765,20.115 L124.955,20.115 L129.815,6.3 L129.95,6.3 L134.765,20.115 Z M172.315,32.895 L172.315,28.035 L155.98,28.035 L155.98,0.765 L150.355,0.765 L150.355,32.895 L172.315,32.895 Z M204.17,33.66 C205.76,33.66 207.32,33.4725 208.85,33.0975 C210.38,32.7225 211.745,32.13 212.945,31.32 C214.145,30.51 215.1125,29.4675 215.8475,28.1925 C216.5825,26.9175 216.95,25.38 216.95,23.58 C216.95,22.74 216.8225,21.9 216.5675,21.06 C216.3125,20.22 215.9225,19.4325 215.3975,18.6975 C214.8725,17.9625 214.22,17.31 213.44,16.74 C212.66,16.17 211.745,15.72 210.695,15.39 C210.275,15.27 209.5775,15.0825 208.6025,14.8275 C207.6275,14.5725 206.63,14.31 205.61,14.04 C204.59,13.77 203.6675,13.5225 202.8425,13.2975 C202.0175,13.0725 201.545,12.945 201.425,12.915 C200.285,12.585 199.3625,12.0975 198.6575,11.4525 C197.9525,10.8075 197.6,9.915 197.6,8.775 C197.6,7.965 197.7875,7.29 198.1625,6.75 C198.5375,6.21 199.01,5.7825 199.58,5.4675 C200.15,5.1525 200.78,4.9275 201.47,4.7925 C202.16,4.6575 202.835,4.59 203.495,4.59 C205.445,4.59 207.05,5.0175 208.31,5.8725 C209.57,6.7275 210.275,8.19 210.425,10.26 L210.425,10.26 L216.05,10.26 C216.05,8.58 215.72,7.1025 215.06,5.8275 C214.4,4.5525 213.5075,3.48 212.3825,2.61 C211.2575,1.74 209.9525,1.0875 208.4675,0.6525 C206.9825,0.2175 205.4,0 203.72,0 C202.28,0 200.855,0.1875 199.445,0.5625 C198.035,0.9375 196.775,1.515 195.665,2.295 C194.555,3.075 193.6625,4.0575 192.9875,5.2425 C192.3125,6.4275 191.975,7.83 191.975,9.45 C191.975,10.29 192.0875,11.115 192.3125,11.925 C192.5375,12.735 192.92,13.5 193.46,14.22 C194,14.94 194.7275,15.5925 195.6425,16.1775 C196.5575,16.7625 197.705,17.235 199.085,17.595 C201.305,18.195 203.1725,18.6825 204.6875,19.0575 C206.2025,19.4325 207.53,19.83 208.67,20.25 C209.33,20.49 209.9375,20.9025 210.4925,21.4875 C211.0475,22.0725 211.325,22.98 211.325,24.21 C211.325,24.81 211.205,25.4025 210.965,25.9875 C210.725,26.5725 210.335,27.09 209.795,27.54 C209.255,27.99 208.55,28.3575 207.68,28.6425 C206.81,28.9275 205.76,29.07 204.53,29.07 C203.39,29.07 202.3325,28.9425 201.3575,28.6875 C200.3825,28.4325 199.52,28.0275 198.77,27.4725 C198.02,26.9175 197.435,26.205 197.015,25.335 C196.595,24.465 196.385,23.415 196.385,22.185 L196.385,22.185 L190.76,22.185 C190.79,24.165 191.165,25.8825 191.885,27.3375 C192.605,28.7925 193.565,29.985 194.765,30.915 C195.965,31.845 197.375,32.535 198.995,32.985 C200.615,33.435 202.34,33.66 204.17,33.66 Z M236.59,32.895 L236.59,5.625 L246.805,5.625 L246.805,0.765 L220.795,0.765 L220.795,5.625 L230.965,5.625 L230.965,32.895 L236.59,32.895 Z M265.365,33.66 C267.345,33.66 269.145,33.405 270.765,32.895 C272.385,32.385 273.7725,31.6125 274.9275,30.5775 C276.0825,29.5425 276.975,28.26 277.605,26.73 C278.235,25.2 278.55,23.4 278.55,21.33 L278.55,21.33 L278.55,0.765 L272.925,0.765 L272.925,19.485 C272.925,20.565 272.8725,21.66 272.7675,22.77 C272.6625,23.88 272.3625,24.8775 271.8675,25.7625 C271.3725,26.6475 270.6225,27.375 269.6175,27.945 C268.6125,28.515 267.195,28.8 265.365,28.8 C263.535,28.8 262.1175,28.515 261.1125,27.945 C260.1075,27.375 259.3575,26.6475 258.8625,25.7625 C258.3675,24.8775 258.0675,23.88 257.9625,22.77 C257.8575,21.66 257.805,20.565 257.805,19.485 L257.805,19.485 L257.805,0.765 L252.18,0.765 L252.18,21.33 C252.18,23.4 252.495,25.2 253.125,26.73 C253.755,28.26 254.6475,29.5425 255.8025,30.5775 C256.9575,31.6125 258.345,32.385 259.965,32.895 C261.585,33.405 263.385,33.66 265.365,33.66 Z M300.35,32.895 C302.81,32.895 304.94,32.475 306.74,31.635 C308.54,30.795 310.01,29.6475 311.15,28.1925 C312.29,26.7375 313.1375,25.035 313.6925,23.085 C314.2475,21.135 314.525,19.05 314.525,16.83 C314.525,14.61 314.2475,12.525 313.6925,10.575 C313.1375,8.625 312.29,6.9225 311.15,5.4675 C310.01,4.0125 308.54,2.865 306.74,2.025 C304.94,1.185 302.81,0.765 300.35,0.765 L300.35,0.765 L287.03,0.765 L287.03,32.895 L300.35,32.895 Z M298.19,28.305 L292.655,28.305 L292.655,5.355 L298.19,5.355 C300.38,5.355 302.1725,5.6475 303.5675,6.2325 C304.9625,6.8175 306.0575,7.6275 306.8525,8.6625 C307.6475,9.6975 308.1875,10.9125 308.4725,12.3075 C308.7575,13.7025 308.9,15.21 308.9,16.83 C308.9,18.45 308.7575,19.9575 308.4725,21.3525 C308.1875,22.7475 307.6475,23.9625 306.8525,24.9975 C306.0575,26.0325 304.9625,26.8425 303.5675,27.4275 C302.1725,28.0125 300.38,28.305 298.19,28.305 L298.19,28.305 Z M327.145,32.895 L327.145,0.765 L321.52,0.765 L321.52,32.895 L327.145,32.895 Z M349.71,33.66 C352.11,33.66 354.2625,33.2175 356.1675,32.3325 C358.0725,31.4475 359.685,30.24 361.005,28.71 C362.325,27.18 363.3375,25.395 364.0425,23.355 C364.7475,21.315 365.1,19.14 365.1,16.83 C365.1,14.55 364.7475,12.39 364.0425,10.35 C363.3375,8.31 362.325,6.525 361.005,4.995 C359.685,3.465 358.0725,2.25 356.1675,1.35 C354.2625,0.45 352.11,0 349.71,0 C347.31,0 345.1575,0.45 343.2525,1.35 C341.3475,2.25 339.735,3.465 338.415,4.995 C337.095,6.525 336.0825,8.31 335.3775,10.35 C334.6725,12.39 334.32,14.55 334.32,16.83 C334.32,19.14 334.6725,21.315 335.3775,23.355 C336.0825,25.395 337.095,27.18 338.415,28.71 C339.735,30.24 341.3475,31.4475 343.2525,32.3325 C345.1575,33.2175 347.31,33.66 349.71,33.66 Z M349.71,29.07 C348,29.07 346.5225,28.725 345.2775,28.035 C344.0325,27.345 343.02,26.4225 342.24,25.2675 C341.46,24.1125 340.8825,22.8 340.5075,21.33 C340.1325,19.86 339.945,18.36 339.945,16.83 C339.945,15.3 340.1325,13.8 340.5075,12.33 C340.8825,10.86 341.46,9.5475 342.24,8.3925 C343.02,7.2375 344.0325,6.315 345.2775,5.625 C346.5225,4.935 348,4.59 349.71,4.59 C351.42,4.59 352.8975,4.935 354.1425,5.625 C355.3875,6.315 356.4,7.2375 357.18,8.3925 C357.96,9.5475 358.5375,10.86 358.9125,12.33 C359.2875,13.8 359.475,15.3 359.475,16.83 C359.475,18.36 359.2875,19.86 358.9125,21.33 C358.5375,22.8 357.96,24.1125 357.18,25.2675 C356.4,26.4225 355.3875,27.345 354.1425,28.035 C352.8975,28.725 351.42,29.07 349.71,29.07 Z" id="SEETALSTUDIO"></path>
            <path d="M378.515,33.175 C379.568333,33.175 380.548333,32.985 381.455,32.605 C382.361667,32.225 383.148333,31.7016667 383.815,31.035 C384.481667,30.3683333 385.005,29.585 385.385,28.685 C385.765,27.785 385.955,26.8083333 385.955,25.755 C385.955,24.715 385.765,23.7416667 385.385,22.835 C385.005,21.9283333 384.481667,21.1383333 383.815,20.465 C383.148333,19.7916667 382.361667,19.265 381.455,18.885 C380.548333,18.505 379.568333,18.315 378.515,18.315 C377.461667,18.315 376.481667,18.505 375.575,18.885 C374.668333,19.265 373.881667,19.7916667 373.215,20.465 C372.548333,21.1383333 372.025,21.9283333 371.645,22.835 C371.265,23.7416667 371.075,24.715 371.075,25.755 C371.075,26.8083333 371.265,27.785 371.645,28.685 C372.025,29.585 372.548333,30.3683333 373.215,31.035 C373.881667,31.7016667 374.668333,32.225 375.575,32.605 C376.481667,32.985 377.461667,33.175 378.515,33.175 Z M378.515,32.135 C377.608333,32.135 376.771667,31.9683333 376.005,31.635 C375.238333,31.3016667 374.575,30.8483333 374.015,30.275 C373.455,29.7016667 373.018333,29.0283333 372.705,28.255 C372.391667,27.4816667 372.235,26.6483333 372.235,25.755 C372.235,24.8616667 372.391667,24.0283333 372.705,23.255 C373.018333,22.4816667 373.455,21.8083333 374.015,21.235 C374.575,20.6616667 375.238333,20.2083333 376.005,19.875 C376.771667,19.5416667 377.608333,19.375 378.515,19.375 C379.408333,19.375 380.238333,19.5416667 381.005,19.875 C381.771667,20.2083333 382.435,20.6616667 382.995,21.235 C383.555,21.8083333 383.995,22.4816667 384.315,23.255 C384.635,24.0283333 384.795,24.8616667 384.795,25.755 C384.795,26.6483333 384.635,27.4816667 384.315,28.255 C383.995,29.0283333 383.555,29.7016667 382.995,30.275 C382.435,30.8483333 381.771667,31.3016667 381.005,31.635 C380.238333,31.9683333 379.408333,32.135 378.515,32.135 Z M376.875,30.055 L376.875,26.235 L378.655,26.235 L381.075,30.055 L382.315,30.055 L379.755,26.235 C380.048333,26.1816667 380.325,26.0983333 380.585,25.985 C380.845,25.8716667 381.075,25.7183333 381.275,25.525 C381.475,25.3316667 381.631667,25.095 381.745,24.815 C381.858333,24.535 381.915,24.2083333 381.915,23.835 C381.915,23.0616667 381.691667,22.4716667 381.245,22.065 C380.798333,21.6583333 380.088333,21.455 379.115,21.455 L375.815,21.455 L375.815,30.055 L376.875,30.055 Z M378.275,25.335 L376.875,25.335 L376.875,22.355 L378.815,22.355 C379.081667,22.355 379.335,22.375 379.575,22.415 C379.815,22.455 380.031667,22.5316667 380.225,22.645 C380.418333,22.7583333 380.571667,22.9083333 380.685,23.095 C380.798333,23.2816667 380.855,23.5283333 380.855,23.835 C380.855,24.195 380.781667,24.4783333 380.635,24.685 C380.488333,24.8916667 380.295,25.0416667 380.055,25.135 C379.815,25.2283333 379.538333,25.285 379.225,25.305 C378.911667,25.325 378.595,25.335 378.275,25.335 Z" id="®"></path>
        </g>
    </g>
</svg>