<?xml version="1.0" encoding="UTF-8"?>
<svg width="293px" height="36px" viewBox="0 0 293 36" version="1.1" xmlns="http://www.w3.org/2000/svg" xmlns:xlink="http://www.w3.org/1999/xlink">
    <title>Group</title>
    <g id="Page-1" stroke="none" stroke-width="1" fill="none" fill-rule="evenodd">
        <g id="Group" transform="translate(0.990000, 0.105000)" fill="#000000" fill-rule="nonzero">
            <path d="M9.36,33.615 C11.16,33.615 12.6675,33.3675 13.8825,32.8725 C15.0975,32.3775 16.0725,31.7175 16.8075,30.8925 C17.5425,30.0675 18.0675,29.13 18.3825,28.08 C18.6975,27.03 18.855,25.965 18.855,24.885 L18.855,0.765 L14.58,0.765 L14.58,24.255 C14.58,26.025 14.2125,27.435 13.4775,28.485 C12.7425,29.535 11.4,30.06 9.45,30.06 C8.4,30.06 7.5375,29.9025 6.8625,29.5875 C6.1875,29.2725 5.6625,28.83 5.2875,28.26 C4.9125,27.69 4.65,27.015 4.5,26.235 C4.35,25.455 4.275,24.6 4.275,23.67 L4.275,22.32 L0,22.32 L0,24.3 C0,27.36 0.81,29.6775 2.43,31.2525 C4.05,32.8275 6.36,33.615 9.36,33.615 Z M41.465,33.615 C44.015,33.615 46.25,33.1575 48.17,32.2425 C50.09,31.3275 51.695,30.09 52.985,28.53 C54.275,26.97 55.2425,25.1775 55.8875,23.1525 C56.5325,21.1275 56.855,19.02 56.855,16.83 C56.855,14.64 56.5325,12.5325 55.8875,10.5075 C55.2425,8.4825 54.275,6.69 52.985,5.13 C51.695,3.57 50.09,2.325 48.17,1.395 C46.25,0.465 44.015,0 41.465,0 C38.915,0 36.68,0.465 34.76,1.395 C32.84,2.325 31.235,3.57 29.945,5.13 C28.655,6.69 27.6875,8.4825 27.0425,10.5075 C26.3975,12.5325 26.075,14.64 26.075,16.83 C26.075,19.02 26.3975,21.1275 27.0425,23.1525 C27.6875,25.1775 28.655,26.97 29.945,28.53 C31.235,30.09 32.84,31.3275 34.76,32.2425 C36.68,33.1575 38.915,33.615 41.465,33.615 Z M41.465,30.06 C39.515,30.06 37.835,29.6775 36.425,28.9125 C35.015,28.1475 33.86,27.135 32.96,25.875 C32.06,24.615 31.4,23.1975 30.98,21.6225 C30.56,20.0475 30.35,18.45 30.35,16.83 C30.35,15.21 30.56,13.6125 30.98,12.0375 C31.4,10.4625 32.06,9.045 32.96,7.785 C33.86,6.525 35.015,5.5125 36.425,4.7475 C37.835,3.9825 39.515,3.6 41.465,3.6 C43.415,3.6 45.095,3.9825 46.505,4.7475 C47.915,5.5125 49.07,6.525 49.97,7.785 C50.87,9.045 51.53,10.4625 51.95,12.0375 C52.37,13.6125 52.58,15.21 52.58,16.83 C52.58,18.45 52.37,20.0475 51.95,21.6225 C51.53,23.1975 50.87,24.615 49.97,25.875 C49.07,27.135 47.915,28.1475 46.505,28.9125 C45.095,29.6775 43.415,30.06 41.465,30.06 Z M77.35,32.895 L77.35,19.755 L89.635,0.765 L84.775,0.765 L75.37,16.065 L65.74,0.765 L60.655,0.765 L73.075,19.755 L73.075,32.895 L77.35,32.895 Z M114.02,32.895 L114.02,18.18 L130.94,18.18 L130.94,32.895 L135.215,32.895 L135.215,0.765 L130.94,0.765 L130.94,14.58 L114.02,14.58 L114.02,0.765 L109.745,0.765 L109.745,32.895 L114.02,32.895 Z M157.825,33.615 C160.375,33.615 162.61,33.1575 164.53,32.2425 C166.45,31.3275 168.055,30.09 169.345,28.53 C170.635,26.97 171.6025,25.1775 172.2475,23.1525 C172.8925,21.1275 173.215,19.02 173.215,16.83 C173.215,14.64 172.8925,12.5325 172.2475,10.5075 C171.6025,8.4825 170.635,6.69 169.345,5.13 C168.055,3.57 166.45,2.325 164.53,1.395 C162.61,0.465 160.375,0 157.825,0 C155.275,0 153.04,0.465 151.12,1.395 C149.2,2.325 147.595,3.57 146.305,5.13 C145.015,6.69 144.0475,8.4825 143.4025,10.5075 C142.7575,12.5325 142.435,14.64 142.435,16.83 C142.435,19.02 142.7575,21.1275 143.4025,23.1525 C144.0475,25.1775 145.015,26.97 146.305,28.53 C147.595,30.09 149.2,31.3275 151.12,32.2425 C153.04,33.1575 155.275,33.615 157.825,33.615 Z M157.825,30.06 C155.875,30.06 154.195,29.6775 152.785,28.9125 C151.375,28.1475 150.22,27.135 149.32,25.875 C148.42,24.615 147.76,23.1975 147.34,21.6225 C146.92,20.0475 146.71,18.45 146.71,16.83 C146.71,15.21 146.92,13.6125 147.34,12.0375 C147.76,10.4625 148.42,9.045 149.32,7.785 C150.22,6.525 151.375,5.5125 152.785,4.7475 C154.195,3.9825 155.875,3.6 157.825,3.6 C159.775,3.6 161.455,3.9825 162.865,4.7475 C164.275,5.5125 165.43,6.525 166.33,7.785 C167.23,9.045 167.89,10.4625 168.31,12.0375 C168.73,13.6125 168.94,15.21 168.94,16.83 C168.94,18.45 168.73,20.0475 168.31,21.6225 C167.89,23.1975 167.23,24.615 166.33,25.875 C165.43,27.135 164.275,28.1475 162.865,28.9125 C161.455,29.6775 159.775,30.06 157.825,30.06 Z M193.44,33.615 C197.49,33.615 200.61,32.5875 202.8,30.5325 C204.99,28.4775 206.085,25.395 206.085,21.285 L206.085,0.765 L201.81,0.765 L201.81,21.285 C201.81,24.165 201.0975,26.3475 199.6725,27.8325 C198.2475,29.3175 196.17,30.06 193.44,30.06 C190.56,30.06 188.355,29.3175 186.825,27.8325 C185.295,26.3475 184.53,24.165 184.53,21.285 L184.53,0.765 L180.255,0.765 L180.255,21.285 C180.255,25.575 181.4175,28.7025 183.7425,30.6675 C186.0675,32.6325 189.3,33.615 193.44,33.615 Z M226.355,33.615 C227.825,33.615 229.3025,33.4425 230.7875,33.0975 C232.2725,32.7525 233.615,32.1975 234.815,31.4325 C236.015,30.6675 236.9975,29.6775 237.7625,28.4625 C238.5275,27.2475 238.91,25.785 238.91,24.075 C238.91,22.485 238.6175,21.165 238.0325,20.115 C237.4475,19.065 236.6675,18.195 235.6925,17.505 C234.7175,16.815 233.615,16.2675 232.385,15.8625 C231.155,15.4575 229.9025,15.105 228.6275,14.805 C227.3525,14.505 226.1,14.2275 224.87,13.9725 C223.64,13.7175 222.5375,13.395 221.5625,13.005 C220.5875,12.615 219.8075,12.1125 219.2225,11.4975 C218.6375,10.8825 218.345,10.08 218.345,9.09 C218.345,8.04 218.5475,7.1625 218.9525,6.4575 C219.3575,5.7525 219.8975,5.19 220.5725,4.77 C221.2475,4.35 222.02,4.05 222.89,3.87 C223.76,3.69 224.645,3.6 225.545,3.6 C227.765,3.6 229.5875,4.1175 231.0125,5.1525 C232.4375,6.1875 233.27,7.86 233.51,10.17 L237.56,10.17 C237.5,8.4 237.1625,6.8775 236.5475,5.6025 C235.9325,4.3275 235.0925,3.27 234.0275,2.43 C232.9625,1.59 231.725,0.975 230.315,0.585 C228.905,0.195 227.375,0 225.725,0 C224.255,0 222.8225,0.1875 221.4275,0.5625 C220.0325,0.9375 218.7875,1.5075 217.6925,2.2725 C216.5975,3.0375 215.72,4.0125 215.06,5.1975 C214.4,6.3825 214.07,7.785 214.07,9.405 C214.07,10.875 214.3625,12.0975 214.9475,13.0725 C215.5325,14.0475 216.3125,14.8425 217.2875,15.4575 C218.2625,16.0725 219.365,16.5675 220.595,16.9425 C221.825,17.3175 223.0775,17.6475 224.3525,17.9325 C225.6275,18.2175 226.88,18.495 228.11,18.765 C229.34,19.035 230.4425,19.3875 231.4175,19.8225 C232.3925,20.2575 233.1725,20.82 233.7575,21.51 C234.3425,22.2 234.635,23.1 234.635,24.21 C234.635,25.38 234.395,26.34 233.915,27.09 C233.435,27.84 232.805,28.4325 232.025,28.8675 C231.245,29.3025 230.3675,29.61 229.3925,29.79 C228.4175,29.97 227.45,30.06 226.49,30.06 C225.29,30.06 224.12,29.91 222.98,29.61 C221.84,29.31 220.8425,28.845 219.9875,28.215 C219.1325,27.585 218.4425,26.7825 217.9175,25.8075 C217.3925,24.8325 217.13,23.67 217.13,22.32 L213.08,22.32 C213.08,24.27 213.4325,25.9575 214.1375,27.3825 C214.8425,28.8075 215.8025,29.9775 217.0175,30.8925 C218.2325,31.8075 219.6425,32.49 221.2475,32.94 C222.8525,33.39 224.555,33.615 226.355,33.615 Z M268.405,32.895 L268.405,29.295 L250.36,29.295 L250.36,18.18 L267.055,18.18 L267.055,14.58 L250.36,14.58 L250.36,4.365 L268.27,4.365 L268.27,0.765 L246.085,0.765 L246.085,32.895 L268.405,32.895 Z" id="JOYHOUSE"></path>
            <path d="M284.01,35.175 C285.063333,35.175 286.043333,34.985 286.95,34.605 C287.856667,34.225 288.643333,33.7016667 289.31,33.035 C289.976667,32.3683333 290.5,31.585 290.88,30.685 C291.26,29.785 291.45,28.8083333 291.45,27.755 C291.45,26.715 291.26,25.7416667 290.88,24.835 C290.5,23.9283333 289.976667,23.1383333 289.31,22.465 C288.643333,21.7916667 287.856667,21.265 286.95,20.885 C286.043333,20.505 285.063333,20.315 284.01,20.315 C282.956667,20.315 281.976667,20.505 281.07,20.885 C280.163333,21.265 279.376667,21.7916667 278.71,22.465 C278.043333,23.1383333 277.52,23.9283333 277.14,24.835 C276.76,25.7416667 276.57,26.715 276.57,27.755 C276.57,28.8083333 276.76,29.785 277.14,30.685 C277.52,31.585 278.043333,32.3683333 278.71,33.035 C279.376667,33.7016667 280.163333,34.225 281.07,34.605 C281.976667,34.985 282.956667,35.175 284.01,35.175 Z M284.01,34.135 C283.103333,34.135 282.266667,33.9683333 281.5,33.635 C280.733333,33.3016667 280.07,32.8483333 279.51,32.275 C278.95,31.7016667 278.513333,31.0283333 278.2,30.255 C277.886667,29.4816667 277.73,28.6483333 277.73,27.755 C277.73,26.8616667 277.886667,26.0283333 278.2,25.255 C278.513333,24.4816667 278.95,23.8083333 279.51,23.235 C280.07,22.6616667 280.733333,22.2083333 281.5,21.875 C282.266667,21.5416667 283.103333,21.375 284.01,21.375 C284.903333,21.375 285.733333,21.5416667 286.5,21.875 C287.266667,22.2083333 287.93,22.6616667 288.49,23.235 C289.05,23.8083333 289.49,24.4816667 289.81,25.255 C290.13,26.0283333 290.29,26.8616667 290.29,27.755 C290.29,28.6483333 290.13,29.4816667 289.81,30.255 C289.49,31.0283333 289.05,31.7016667 288.49,32.275 C287.93,32.8483333 287.266667,33.3016667 286.5,33.635 C285.733333,33.9683333 284.903333,34.135 284.01,34.135 Z M282.37,32.055 L282.37,28.235 L284.15,28.235 L286.57,32.055 L287.81,32.055 L285.25,28.235 C285.543333,28.1816667 285.82,28.0983333 286.08,27.985 C286.34,27.8716667 286.57,27.7183333 286.77,27.525 C286.97,27.3316667 287.126667,27.095 287.24,26.815 C287.353333,26.535 287.41,26.2083333 287.41,25.835 C287.41,25.0616667 287.186667,24.4716667 286.74,24.065 C286.293333,23.6583333 285.583333,23.455 284.61,23.455 L281.31,23.455 L281.31,32.055 L282.37,32.055 Z M283.77,27.335 L282.37,27.335 L282.37,24.355 L284.31,24.355 C284.576667,24.355 284.83,24.375 285.07,24.415 C285.31,24.455 285.526667,24.5316667 285.72,24.645 C285.913333,24.7583333 286.066667,24.9083333 286.18,25.095 C286.293333,25.2816667 286.35,25.5283333 286.35,25.835 C286.35,26.195 286.276667,26.4783333 286.13,26.685 C285.983333,26.8916667 285.79,27.0416667 285.55,27.135 C285.31,27.2283333 285.033333,27.285 284.72,27.305 C284.406667,27.325 284.09,27.335 283.77,27.335 Z" id="®"></path>
        </g>
    </g>
</svg>